<svg version="1.2" xmlns="http://www.w3.org/2000/svg" viewBox="0 0 109 109" width="109" height="109">
	<style>
		.s0 { fill: #ffffff } 
	</style>
	<path class="s0" d="m30.63 45.24q0.01 1.99 0.4 3.17c0.29 0.78 0.65 1.64 1.15 2.56q0.27 0.44 0.26 0.82 0.01 0.54-0.69 1.07l-2.28 1.49q-0.49 0.33-0.94 0.32-0.54 0-1.08-0.49-0.18-0.2-0.36-0.4-0.17-0.2-0.33-0.41-0.16-0.21-0.32-0.42-0.15-0.22-0.29-0.45-0.15-0.25-0.3-0.51-0.14-0.26-0.28-0.52-0.14-0.27-0.28-0.53-0.13-0.27-0.26-0.54-4.23 4.92-10.63 4.92-4.56 0-7.23-2.57-2.66-2.56-2.67-6.83-0.01-4.55 3.29-7.33c2.2-1.85 5.13-2.78 8.85-2.78q1.84 0.01 3.83 0.28c1.34 0.18 2.71 0.47 4.16 0.79v-2.6q-0.01-4.05-1.7-5.7-1.73-1.64-5.89-1.63-1.9-0.01-3.9 0.46-2.01 0.47-3.91 1.21-0.87 0.37-1.26 0.46-0.37 0.11-0.58 0.11-0.76 0.01-0.76-1.1v-1.75q-0.01-0.86 0.25-1.24 0.26-0.38 1.01-0.75 1.9-0.96 4.56-1.6 2.65-0.69 5.64-0.68 6.44 0 9.47 2.88 2.99 2.89 3 8.76v11.53zm-14.68 5.41q1.78 0 3.72-0.64c1.31-0.43 2.46-1.21 3.44-2.28 0.58-0.67 1.01-1.42 1.23-2.27 0.21-0.86 0.36-1.89 0.36-3.1v-1.49q-0.41-0.1-0.83-0.19-0.41-0.09-0.83-0.16-0.41-0.08-0.83-0.14-0.42-0.07-0.84-0.12-0.42-0.05-0.84-0.09-0.43-0.04-0.85-0.07-0.43-0.03-0.85-0.04-0.43-0.01-0.85-0.01c-2.43 0-4.2 0.46-5.39 1.42q-1.78 1.43-1.77 4.09-0.01 2.5 1.34 3.78 1.3 1.32 3.79 1.31zm29.03 3.85c-0.65 0-1.09-0.11-1.38-0.36-0.29-0.21-0.54-0.71-0.76-1.39l-8.49-27.51q-0.33-1.06-0.33-1.42c0-0.57 0.29-0.89 0.87-0.89h3.54q1.03-0.01 1.41 0.35c0.29 0.22 0.51 0.71 0.73 1.39l6.07 23.56 5.64-23.56q0.26-1.07 0.68-1.39c0.29-0.21 0.8-0.35 1.45-0.35h2.89q1.02-0.01 1.45 0.35c0.29 0.22 0.54 0.71 0.68 1.39l5.71 23.85 6.26-23.85q0.33-1.07 0.72-1.39c0.29-0.21 0.76-0.35 1.41-0.35h3.36c0.58 0 0.91 0.28 0.91 0.89q-0.01 0.25-0.08 0.57-0.02 0.11-0.04 0.22-0.03 0.12-0.06 0.23-0.03 0.11-0.07 0.22-0.04 0.11-0.08 0.22l-8.71 27.51q-0.33 1.07-0.76 1.39c-0.29 0.21-0.76 0.35-1.37 0.35h-3.11q-1.02 0.01-1.45-0.35c-0.29-0.25-0.54-0.71-0.68-1.43l-5.61-22.95-5.56 22.92q-0.26 1.06-0.69 1.42c-0.29 0.25-0.79 0.36-1.45 0.36 0 0-3.1 0-3.1 0zm46.44 0.96c-1.88 0-3.76-0.21-5.56-0.64-1.81-0.43-3.22-0.89-4.16-1.43-0.58-0.32-0.98-0.67-1.12-0.99q-0.05-0.12-0.09-0.24-0.04-0.12-0.07-0.25-0.03-0.13-0.04-0.25-0.02-0.13-0.02-0.26v-1.81q0.01-1.12 0.83-1.11 0.33 0 0.65 0.11c0.22 0.07 0.55 0.21 0.91 0.36q1.85 0.8 3.97 1.24c1.45 0.29 2.86 0.43 4.31 0.43q3.42 0 5.27-1.18c1.23-0.78 1.88-1.92 1.88-3.38q0-1.48-0.97-2.49-0.99-1.01-3.65-1.85l-5.25-1.6c-2.63-0.82-4.59-2.03-5.78-3.63-1.19-1.57-1.81-3.31-1.81-5.16q0-2.25 0.98-3.95 0.24-0.43 0.53-0.84 0.29-0.4 0.61-0.77 0.33-0.36 0.7-0.69 0.36-0.34 0.76-0.62c1.09-0.82 2.32-1.43 3.76-1.85 1.45-0.43 2.97-0.61 4.56-0.61 0.79 0 1.62 0.04 2.42 0.14 0.83 0.11 1.59 0.25 2.35 0.39q1.08 0.26 2.06 0.57 0.97 0.32 1.52 0.64 0.75 0.42 1.08 0.89 0.33 0.43 0.32 1.18v1.67q0 1.13-0.83 1.14-0.44 0-1.37-0.43-3.09-1.38-6.94-1.38c-2.06 0-3.69 0.32-4.81 0.99-1.12 0.68-1.7 1.71-1.7 3.17q0 1.5 1.09 2.53c0.72 0.67 2.06 1.35 3.97 1.95l5.14 1.61q3.91 1.22 5.6 3.41 1.67 2.2 1.66 4.99-0.01 2.3-0.94 4.13c-0.65 1.21-1.51 2.27-2.64 3.13-1.12 0.89-2.45 1.53-4.01 1.99-1.62 0.5-3.32 0.75-5.17 0.75z"/>
	<path class="s0" d="m98.25 72.76c-11.89 8.65-29.17 13.24-44.02 13.24-20.82 0-39.58-7.58-53.75-20.18-1.12-1-0.11-2.35 1.23-1.57 15.33 8.76 34.23 14.06 53.79 14.06 13.19 0 27.68-2.7 41.02-8.25 1.99-0.89 3.69 1.28 1.73 2.7z"/>
	<path class="s0" d="m103.2 67.2c-1.52-1.92-10.05-0.92-13.92-0.46-1.15 0.14-1.33-0.85-0.29-1.6 6.8-4.7 17.97-3.35 19.27-1.78 1.3 1.6-0.36 12.6-6.72 17.87-0.98 0.82-1.92 0.39-1.49-0.68 1.45-3.52 4.67-11.46 3.15-13.35z"/>
	<path class="s0" d="m30.63 45.24q0.01 1.99 0.4 3.17c0.29 0.78 0.65 1.64 1.15 2.56q0.27 0.44 0.26 0.82 0.01 0.54-0.69 1.07l-2.28 1.49q-0.49 0.33-0.94 0.32-0.54 0-1.08-0.49-0.18-0.2-0.36-0.4-0.17-0.2-0.33-0.41-0.16-0.21-0.32-0.42-0.15-0.22-0.29-0.45-0.15-0.25-0.3-0.51-0.14-0.26-0.28-0.52-0.14-0.27-0.28-0.53-0.13-0.27-0.26-0.54-4.23 4.92-10.63 4.92-4.56 0-7.23-2.57-2.66-2.56-2.67-6.83-0.01-4.55 3.29-7.33c2.2-1.85 5.13-2.78 8.85-2.78q1.84 0.01 3.83 0.28c1.34 0.18 2.71 0.47 4.16 0.79v-2.6q-0.01-4.05-1.7-5.7-1.73-1.64-5.89-1.63-1.9-0.01-3.9 0.46-2.01 0.47-3.91 1.21-0.87 0.37-1.26 0.46-0.37 0.11-0.58 0.11-0.76 0.01-0.76-1.1v-1.75q-0.01-0.86 0.25-1.24 0.26-0.38 1.01-0.75 1.9-0.96 4.56-1.6 2.65-0.69 5.64-0.68 6.44 0 9.47 2.88 2.99 2.89 3 8.76v11.53zm-14.68 5.41q1.78 0 3.72-0.64c1.31-0.43 2.46-1.21 3.44-2.28 0.58-0.67 1.01-1.42 1.23-2.27 0.21-0.86 0.36-1.89 0.36-3.1v-1.49q-0.41-0.1-0.83-0.19-0.41-0.09-0.83-0.16-0.41-0.08-0.83-0.14-0.42-0.07-0.84-0.12-0.42-0.05-0.84-0.09-0.43-0.04-0.85-0.07-0.43-0.03-0.85-0.04-0.43-0.01-0.85-0.01c-2.43 0-4.2 0.46-5.39 1.42q-1.78 1.43-1.77 4.09-0.01 2.5 1.34 3.78 1.3 1.32 3.79 1.31zm29.03 3.85c-0.65 0-1.09-0.11-1.38-0.36-0.29-0.21-0.54-0.71-0.76-1.39l-8.49-27.51q-0.33-1.06-0.33-1.42c0-0.57 0.29-0.89 0.87-0.89h3.54q1.03-0.01 1.41 0.35c0.29 0.22 0.51 0.71 0.73 1.39l6.07 23.56 5.64-23.56q0.26-1.07 0.68-1.39c0.29-0.21 0.8-0.35 1.45-0.35h2.89q1.02-0.01 1.45 0.35c0.29 0.22 0.54 0.71 0.68 1.39l5.71 23.85 6.26-23.85q0.33-1.07 0.72-1.39c0.29-0.21 0.76-0.35 1.41-0.35h3.36c0.58 0 0.91 0.28 0.91 0.89q-0.01 0.25-0.08 0.57-0.02 0.11-0.04 0.22-0.03 0.12-0.06 0.23-0.03 0.11-0.07 0.22-0.04 0.11-0.08 0.22l-8.71 27.51q-0.32 1.07-0.76 1.39c-0.29 0.21-0.76 0.35-1.37 0.35h-3.11q-1.02 0.01-1.45-0.35c-0.29-0.25-0.54-0.71-0.68-1.43l-5.61-22.95-5.56 22.92q-0.26 1.06-0.69 1.42c-0.29 0.25-0.79 0.36-1.45 0.36 0 0-3.1 0-3.1 0zm46.44 0.96c-1.88 0-3.76-0.21-5.56-0.64-1.81-0.43-3.22-0.89-4.16-1.43-0.58-0.32-0.98-0.67-1.12-0.99q-0.05-0.12-0.09-0.24-0.04-0.12-0.07-0.25-0.03-0.13-0.04-0.25-0.02-0.13-0.02-0.26v-1.81q0.01-1.12 0.83-1.11 0.33 0 0.65 0.11c0.22 0.07 0.55 0.21 0.91 0.36q1.85 0.8 3.97 1.24c1.45 0.29 2.86 0.43 4.31 0.43q3.42 0 5.27-1.18c1.23-0.78 1.88-1.92 1.88-3.38q0-1.48-0.97-2.49-0.99-1.01-3.65-1.85l-5.25-1.6c-2.63-0.82-4.59-2.03-5.78-3.63-1.19-1.57-1.81-3.31-1.81-5.16q0-2.25 0.98-3.95 0.24-0.43 0.53-0.84 0.29-0.4 0.61-0.76 0.33-0.37 0.7-0.7 0.36-0.34 0.76-0.62c1.09-0.82 2.32-1.43 3.76-1.85 1.45-0.43 2.97-0.61 4.56-0.61 0.79 0 1.62 0.04 2.42 0.14 0.83 0.11 1.59 0.25 2.35 0.39q1.08 0.26 2.06 0.57 0.97 0.32 1.52 0.64 0.75 0.42 1.08 0.89 0.33 0.43 0.32 1.18v1.67q0 1.13-0.83 1.14-0.44 0-1.37-0.43-3.09-1.38-6.94-1.38c-2.06 0-3.69 0.32-4.81 0.99-1.12 0.68-1.7 1.71-1.7 3.17q0 1.5 1.09 2.53c0.72 0.67 2.06 1.35 3.97 1.95l5.14 1.61q3.91 1.22 5.6 3.41 1.67 2.2 1.66 4.99-0.01 2.3-0.94 4.13c-0.65 1.21-1.52 2.27-2.64 3.13-1.12 0.89-2.45 1.53-4.01 1.99-1.62 0.5-3.32 0.75-5.17 0.75z"/>
	<path class="s0" d="m98.25 72.76c-11.89 8.65-29.17 13.24-44.02 13.24-20.82 0-39.58-7.58-53.75-20.18-1.12-1-0.11-2.35 1.23-1.57 15.33 8.76 34.23 14.06 53.79 14.06 13.19 0 27.68-2.7 41.02-8.25 1.99-0.89 3.69 1.28 1.73 2.7z"/>
	<path class="s0" d="m103.2 67.2c-1.52-1.92-10.05-0.92-13.92-0.46-1.15 0.14-1.33-0.85-0.29-1.6 6.8-4.7 17.97-3.35 19.27-1.78 1.3 1.6-0.36 12.6-6.72 17.87-0.98 0.82-1.92 0.39-1.49-0.68 1.45-3.52 4.67-11.46 3.15-13.35z"/>
</svg>