<svg version="1.2" xmlns="http://www.w3.org/2000/svg" viewBox="0 0 32 32" width="32" height="32">
	<style>
		.s0 { fill: #ffffff } 
		.s1 { fill: #f29111 } 
	</style>
	<g id="Java Logo">
		<g id="Group">
			<path id="Vector_2" class="s0" d="m7.01 19.03c0-0.89 3.36-1.38 4.93-1.5l0.15 0.09c-0.6 0.1-3.02 0.53-3.02 1.09 0 0.6 3.71 1 5.86 1 3.65 0 6.14-0.56 6.8-0.74l0.94 0.55c-0.64 0.31-3.39 1.13-7.74 1.13-4.84 0-7.92-0.94-7.92-1.62zm7.37 12.44c-1.92 0.02-4.25-0.14-6.21-0.47l-0.19 0.11c1.96 0.58 4.69 0.92 7.68 0.89 5.88-0.05 10.65-1.5 10.75-3.25l-0.07-0.04c-0.4 0.48-2.94 2.69-11.96 2.77zm0.5-1.13c4.81-0.04 10.2-0.98 10.19-2.56 0-0.29-0.19-0.48-0.35-0.6l-0.08 0.04c-0.44 1.22-4.21 2.13-9.76 2.18-3.59 0.03-8.55-0.83-8.56-1.82-0.01-0.99 2.35-1.54 2.35-1.54l-0.16-0.09c-1.6 0.21-4.52 0.97-4.5 2.06 0.01 1.59 6.71 2.36 10.87 2.33zm10.85-10.88c-0.1 1.85-1.81 3-3.53 3.98l0.16 0.09c1.83-0.51 5.09-2.01 4.82-4.31-0.13-1.14-1.19-1.97-2.55-1.97q-0.65 0.02-1.12 0.17l-0.06 0.17c1.22-0.24 2.34 0.65 2.28 1.87zm-14.15 5.51c-0.55 0.11-1.77 0.39-1.77 0.98 0 0.82 2.6 1.44 5.12 1.44 3.46 0 4.88-0.88 4.95-0.93l-1.44-0.83c-0.62 0.14-1.65 0.37-3.5 0.37-2.08 0-3.43-0.35-3.43-0.74q0.01-0.13 0.15-0.25l-0.07-0.05zm8.5-2.76c-0.8 0.23-2.58 0.59-5.15 0.59-2.57 0-4.57-0.43-4.58-0.94 0-0.33 0.41-0.48 0.41-0.48l-0.07-0.04c-1.21 0.21-2.33 0.54-2.33 1.03 0.02 0.89 3.44 1.56 6.57 1.56 2.66 0 5.21-0.44 6.36-1.03l-1.21-0.69z"/>
			<path id="Vector_3" class="s1" d="m19.39 2.29c0 4.93-6.75 6.81-6.75 10.31 0 2.45 1.63 4 2.53 4.97l-0.07 0.04c-1.15-0.71-4.14-2.5-4.14-5.46 0-4.14 7.76-6.13 7.76-10.84 0-0.58-0.09-1.03-0.15-1.27l0.08-0.04c0.24 0.31 0.74 1.08 0.74 2.29zm2.22 4.36l-0.08-0.05c-1.48 0.5-6 2.28-6 5.6 0 1.88 1.84 2.93 1.84 4.69 0 0.63-0.36 1.22-0.65 1.57l0.14 0.08c0.77-0.5 2.13-1.58 2.13-2.96 0-1.18-1.63-2.59-1.63-4.1 0-2.38 3.14-4.26 4.25-4.84z"/>
		</g>
	</g>
</svg>